M48
METRIC,TZ
T1C0.400
T2C0.800
%
G90
G05
T1
X74750Y-88500
X75500Y-60000
X75500Y-65750
X75925Y-86000
X76000Y-68250
X76650Y-83250
X77000Y-70750
X77375Y-80750
X77500Y-73250
X78000Y-70250
X79000Y-72000
X79000Y-84750
T2
X73175Y-60575
X73175Y-63115
X73175Y-65655
X73175Y-68195
X73175Y-70735
X73175Y-73275
X73175Y-75815
X73175Y-78355
X73175Y-80895
X73175Y-83435
X73175Y-85975
X83335Y-60575
X83335Y-63115
X83335Y-65655
X83335Y-68195
X83335Y-70735
X83335Y-73275
X83335Y-75815
X83335Y-78355
X83335Y-80895
X83335Y-83435
X83335Y-85975
X70500Y-60575
X70500Y-63115
X70500Y-65655
X70500Y-68195
X70500Y-70735
X70500Y-73275
X70500Y-75815
X70500Y-78355
X70500Y-80895
X70500Y-83435
X70500Y-85975
X70500Y-88515
X80660Y-60575
X80660Y-63115
X80660Y-65655
X80660Y-68195
X80660Y-70735
X80660Y-73275
X80660Y-75815
X80660Y-78355
X80660Y-80895
X80660Y-83435
X80660Y-85975
X80660Y-88515
T0
M30
