G04 #@! TF.GenerationSoftware,KiCad,Pcbnew,(5.1.4)-1*
G04 #@! TF.CreationDate,2022-03-07T20:56:38-05:00*
G04 #@! TF.ProjectId,MB7074_to_MB7072,4d423730-3734-45f7-946f-5f4d42373037,rev?*
G04 #@! TF.SameCoordinates,Original*
G04 #@! TF.FileFunction,Soldermask,Top*
G04 #@! TF.FilePolarity,Negative*
%FSLAX46Y46*%
G04 Gerber Fmt 4.6, Leading zero omitted, Abs format (unit mm)*
G04 Created by KiCad (PCBNEW (5.1.4)-1) date 2022-03-07 20:56:38*
%MOMM*%
%LPD*%
G04 APERTURE LIST*
%ADD10C,0.100000*%
G04 APERTURE END LIST*
D10*
G36*
X80826823Y-87676314D02*
G01*
X80987242Y-87724977D01*
X81119906Y-87795887D01*
X81135078Y-87803997D01*
X81264659Y-87910342D01*
X81371004Y-88039923D01*
X81371005Y-88039925D01*
X81450024Y-88187759D01*
X81498687Y-88348178D01*
X81515117Y-88515001D01*
X81498687Y-88681824D01*
X81450024Y-88842243D01*
X81379114Y-88974907D01*
X81371004Y-88990079D01*
X81264659Y-89119660D01*
X81135078Y-89226005D01*
X81135076Y-89226006D01*
X80987242Y-89305025D01*
X80826823Y-89353688D01*
X80701804Y-89366001D01*
X80618196Y-89366001D01*
X80493177Y-89353688D01*
X80332758Y-89305025D01*
X80184924Y-89226006D01*
X80184922Y-89226005D01*
X80055341Y-89119660D01*
X79948996Y-88990079D01*
X79940886Y-88974907D01*
X79869976Y-88842243D01*
X79821313Y-88681824D01*
X79804883Y-88515001D01*
X79821313Y-88348178D01*
X79869976Y-88187759D01*
X79948995Y-88039925D01*
X79948996Y-88039923D01*
X80055341Y-87910342D01*
X80184922Y-87803997D01*
X80200094Y-87795887D01*
X80332758Y-87724977D01*
X80493177Y-87676314D01*
X80618196Y-87664001D01*
X80701804Y-87664001D01*
X80826823Y-87676314D01*
X80826823Y-87676314D01*
G37*
G36*
X70666823Y-87676314D02*
G01*
X70827242Y-87724977D01*
X70959906Y-87795887D01*
X70975078Y-87803997D01*
X71104659Y-87910342D01*
X71211004Y-88039923D01*
X71211005Y-88039925D01*
X71290024Y-88187759D01*
X71338687Y-88348178D01*
X71355117Y-88515001D01*
X71338687Y-88681824D01*
X71290024Y-88842243D01*
X71219114Y-88974907D01*
X71211004Y-88990079D01*
X71104659Y-89119660D01*
X70975078Y-89226005D01*
X70975076Y-89226006D01*
X70827242Y-89305025D01*
X70666823Y-89353688D01*
X70541804Y-89366001D01*
X70458196Y-89366001D01*
X70333177Y-89353688D01*
X70172758Y-89305025D01*
X70024924Y-89226006D01*
X70024922Y-89226005D01*
X69895341Y-89119660D01*
X69788996Y-88990079D01*
X69780886Y-88974907D01*
X69709976Y-88842243D01*
X69661313Y-88681824D01*
X69644883Y-88515001D01*
X69661313Y-88348178D01*
X69709976Y-88187759D01*
X69788995Y-88039925D01*
X69788996Y-88039923D01*
X69895341Y-87910342D01*
X70024922Y-87803997D01*
X70040094Y-87795887D01*
X70172758Y-87724977D01*
X70333177Y-87676314D01*
X70458196Y-87664001D01*
X70541804Y-87664001D01*
X70666823Y-87676314D01*
X70666823Y-87676314D01*
G37*
G36*
X80826823Y-85136314D02*
G01*
X80987242Y-85184977D01*
X81119906Y-85255887D01*
X81135078Y-85263997D01*
X81264659Y-85370342D01*
X81371004Y-85499923D01*
X81371005Y-85499925D01*
X81450024Y-85647759D01*
X81498687Y-85808178D01*
X81515117Y-85975001D01*
X81498687Y-86141824D01*
X81450024Y-86302243D01*
X81379114Y-86434907D01*
X81371004Y-86450079D01*
X81264659Y-86579660D01*
X81135078Y-86686005D01*
X81135076Y-86686006D01*
X80987242Y-86765025D01*
X80826823Y-86813688D01*
X80701804Y-86826001D01*
X80618196Y-86826001D01*
X80493177Y-86813688D01*
X80332758Y-86765025D01*
X80184924Y-86686006D01*
X80184922Y-86686005D01*
X80055341Y-86579660D01*
X79948996Y-86450079D01*
X79940886Y-86434907D01*
X79869976Y-86302243D01*
X79821313Y-86141824D01*
X79804883Y-85975001D01*
X79821313Y-85808178D01*
X79869976Y-85647759D01*
X79948995Y-85499925D01*
X79948996Y-85499923D01*
X80055341Y-85370342D01*
X80184922Y-85263997D01*
X80200094Y-85255887D01*
X80332758Y-85184977D01*
X80493177Y-85136314D01*
X80618196Y-85124001D01*
X80701804Y-85124001D01*
X80826823Y-85136314D01*
X80826823Y-85136314D01*
G37*
G36*
X83501824Y-85136314D02*
G01*
X83662243Y-85184977D01*
X83794907Y-85255887D01*
X83810079Y-85263997D01*
X83939660Y-85370342D01*
X84046005Y-85499923D01*
X84046006Y-85499925D01*
X84125025Y-85647759D01*
X84173688Y-85808178D01*
X84190118Y-85975001D01*
X84173688Y-86141824D01*
X84125025Y-86302243D01*
X84054115Y-86434907D01*
X84046005Y-86450079D01*
X83939660Y-86579660D01*
X83810079Y-86686005D01*
X83810077Y-86686006D01*
X83662243Y-86765025D01*
X83501824Y-86813688D01*
X83376805Y-86826001D01*
X83293197Y-86826001D01*
X83168178Y-86813688D01*
X83007759Y-86765025D01*
X82859925Y-86686006D01*
X82859923Y-86686005D01*
X82730342Y-86579660D01*
X82623997Y-86450079D01*
X82615887Y-86434907D01*
X82544977Y-86302243D01*
X82496314Y-86141824D01*
X82479884Y-85975001D01*
X82496314Y-85808178D01*
X82544977Y-85647759D01*
X82623996Y-85499925D01*
X82623997Y-85499923D01*
X82730342Y-85370342D01*
X82859923Y-85263997D01*
X82875095Y-85255887D01*
X83007759Y-85184977D01*
X83168178Y-85136314D01*
X83293197Y-85124001D01*
X83376805Y-85124001D01*
X83501824Y-85136314D01*
X83501824Y-85136314D01*
G37*
G36*
X73341824Y-85136314D02*
G01*
X73502243Y-85184977D01*
X73634907Y-85255887D01*
X73650079Y-85263997D01*
X73779660Y-85370342D01*
X73886005Y-85499923D01*
X73886006Y-85499925D01*
X73965025Y-85647759D01*
X74013688Y-85808178D01*
X74030118Y-85975001D01*
X74013688Y-86141824D01*
X73965025Y-86302243D01*
X73894115Y-86434907D01*
X73886005Y-86450079D01*
X73779660Y-86579660D01*
X73650079Y-86686005D01*
X73650077Y-86686006D01*
X73502243Y-86765025D01*
X73341824Y-86813688D01*
X73216805Y-86826001D01*
X73133197Y-86826001D01*
X73008178Y-86813688D01*
X72847759Y-86765025D01*
X72699925Y-86686006D01*
X72699923Y-86686005D01*
X72570342Y-86579660D01*
X72463997Y-86450079D01*
X72455887Y-86434907D01*
X72384977Y-86302243D01*
X72336314Y-86141824D01*
X72319884Y-85975001D01*
X72336314Y-85808178D01*
X72384977Y-85647759D01*
X72463996Y-85499925D01*
X72463997Y-85499923D01*
X72570342Y-85370342D01*
X72699923Y-85263997D01*
X72715095Y-85255887D01*
X72847759Y-85184977D01*
X73008178Y-85136314D01*
X73133197Y-85124001D01*
X73216805Y-85124001D01*
X73341824Y-85136314D01*
X73341824Y-85136314D01*
G37*
G36*
X70666823Y-85136314D02*
G01*
X70827242Y-85184977D01*
X70959906Y-85255887D01*
X70975078Y-85263997D01*
X71104659Y-85370342D01*
X71211004Y-85499923D01*
X71211005Y-85499925D01*
X71290024Y-85647759D01*
X71338687Y-85808178D01*
X71355117Y-85975001D01*
X71338687Y-86141824D01*
X71290024Y-86302243D01*
X71219114Y-86434907D01*
X71211004Y-86450079D01*
X71104659Y-86579660D01*
X70975078Y-86686005D01*
X70975076Y-86686006D01*
X70827242Y-86765025D01*
X70666823Y-86813688D01*
X70541804Y-86826001D01*
X70458196Y-86826001D01*
X70333177Y-86813688D01*
X70172758Y-86765025D01*
X70024924Y-86686006D01*
X70024922Y-86686005D01*
X69895341Y-86579660D01*
X69788996Y-86450079D01*
X69780886Y-86434907D01*
X69709976Y-86302243D01*
X69661313Y-86141824D01*
X69644883Y-85975001D01*
X69661313Y-85808178D01*
X69709976Y-85647759D01*
X69788995Y-85499925D01*
X69788996Y-85499923D01*
X69895341Y-85370342D01*
X70024922Y-85263997D01*
X70040094Y-85255887D01*
X70172758Y-85184977D01*
X70333177Y-85136314D01*
X70458196Y-85124001D01*
X70541804Y-85124001D01*
X70666823Y-85136314D01*
X70666823Y-85136314D01*
G37*
G36*
X70666823Y-82596314D02*
G01*
X70827242Y-82644977D01*
X70959906Y-82715887D01*
X70975078Y-82723997D01*
X71104659Y-82830342D01*
X71211004Y-82959923D01*
X71211005Y-82959925D01*
X71290024Y-83107759D01*
X71338687Y-83268178D01*
X71355117Y-83435001D01*
X71338687Y-83601824D01*
X71290024Y-83762243D01*
X71219114Y-83894907D01*
X71211004Y-83910079D01*
X71104659Y-84039660D01*
X70975078Y-84146005D01*
X70975076Y-84146006D01*
X70827242Y-84225025D01*
X70666823Y-84273688D01*
X70541804Y-84286001D01*
X70458196Y-84286001D01*
X70333177Y-84273688D01*
X70172758Y-84225025D01*
X70024924Y-84146006D01*
X70024922Y-84146005D01*
X69895341Y-84039660D01*
X69788996Y-83910079D01*
X69780886Y-83894907D01*
X69709976Y-83762243D01*
X69661313Y-83601824D01*
X69644883Y-83435001D01*
X69661313Y-83268178D01*
X69709976Y-83107759D01*
X69788995Y-82959925D01*
X69788996Y-82959923D01*
X69895341Y-82830342D01*
X70024922Y-82723997D01*
X70040094Y-82715887D01*
X70172758Y-82644977D01*
X70333177Y-82596314D01*
X70458196Y-82584001D01*
X70541804Y-82584001D01*
X70666823Y-82596314D01*
X70666823Y-82596314D01*
G37*
G36*
X80826823Y-82596314D02*
G01*
X80987242Y-82644977D01*
X81119906Y-82715887D01*
X81135078Y-82723997D01*
X81264659Y-82830342D01*
X81371004Y-82959923D01*
X81371005Y-82959925D01*
X81450024Y-83107759D01*
X81498687Y-83268178D01*
X81515117Y-83435001D01*
X81498687Y-83601824D01*
X81450024Y-83762243D01*
X81379114Y-83894907D01*
X81371004Y-83910079D01*
X81264659Y-84039660D01*
X81135078Y-84146005D01*
X81135076Y-84146006D01*
X80987242Y-84225025D01*
X80826823Y-84273688D01*
X80701804Y-84286001D01*
X80618196Y-84286001D01*
X80493177Y-84273688D01*
X80332758Y-84225025D01*
X80184924Y-84146006D01*
X80184922Y-84146005D01*
X80055341Y-84039660D01*
X79948996Y-83910079D01*
X79940886Y-83894907D01*
X79869976Y-83762243D01*
X79821313Y-83601824D01*
X79804883Y-83435001D01*
X79821313Y-83268178D01*
X79869976Y-83107759D01*
X79948995Y-82959925D01*
X79948996Y-82959923D01*
X80055341Y-82830342D01*
X80184922Y-82723997D01*
X80200094Y-82715887D01*
X80332758Y-82644977D01*
X80493177Y-82596314D01*
X80618196Y-82584001D01*
X80701804Y-82584001D01*
X80826823Y-82596314D01*
X80826823Y-82596314D01*
G37*
G36*
X83501824Y-82596314D02*
G01*
X83662243Y-82644977D01*
X83794907Y-82715887D01*
X83810079Y-82723997D01*
X83939660Y-82830342D01*
X84046005Y-82959923D01*
X84046006Y-82959925D01*
X84125025Y-83107759D01*
X84173688Y-83268178D01*
X84190118Y-83435001D01*
X84173688Y-83601824D01*
X84125025Y-83762243D01*
X84054115Y-83894907D01*
X84046005Y-83910079D01*
X83939660Y-84039660D01*
X83810079Y-84146005D01*
X83810077Y-84146006D01*
X83662243Y-84225025D01*
X83501824Y-84273688D01*
X83376805Y-84286001D01*
X83293197Y-84286001D01*
X83168178Y-84273688D01*
X83007759Y-84225025D01*
X82859925Y-84146006D01*
X82859923Y-84146005D01*
X82730342Y-84039660D01*
X82623997Y-83910079D01*
X82615887Y-83894907D01*
X82544977Y-83762243D01*
X82496314Y-83601824D01*
X82479884Y-83435001D01*
X82496314Y-83268178D01*
X82544977Y-83107759D01*
X82623996Y-82959925D01*
X82623997Y-82959923D01*
X82730342Y-82830342D01*
X82859923Y-82723997D01*
X82875095Y-82715887D01*
X83007759Y-82644977D01*
X83168178Y-82596314D01*
X83293197Y-82584001D01*
X83376805Y-82584001D01*
X83501824Y-82596314D01*
X83501824Y-82596314D01*
G37*
G36*
X73341824Y-82596314D02*
G01*
X73502243Y-82644977D01*
X73634907Y-82715887D01*
X73650079Y-82723997D01*
X73779660Y-82830342D01*
X73886005Y-82959923D01*
X73886006Y-82959925D01*
X73965025Y-83107759D01*
X74013688Y-83268178D01*
X74030118Y-83435001D01*
X74013688Y-83601824D01*
X73965025Y-83762243D01*
X73894115Y-83894907D01*
X73886005Y-83910079D01*
X73779660Y-84039660D01*
X73650079Y-84146005D01*
X73650077Y-84146006D01*
X73502243Y-84225025D01*
X73341824Y-84273688D01*
X73216805Y-84286001D01*
X73133197Y-84286001D01*
X73008178Y-84273688D01*
X72847759Y-84225025D01*
X72699925Y-84146006D01*
X72699923Y-84146005D01*
X72570342Y-84039660D01*
X72463997Y-83910079D01*
X72455887Y-83894907D01*
X72384977Y-83762243D01*
X72336314Y-83601824D01*
X72319884Y-83435001D01*
X72336314Y-83268178D01*
X72384977Y-83107759D01*
X72463996Y-82959925D01*
X72463997Y-82959923D01*
X72570342Y-82830342D01*
X72699923Y-82723997D01*
X72715095Y-82715887D01*
X72847759Y-82644977D01*
X73008178Y-82596314D01*
X73133197Y-82584001D01*
X73216805Y-82584001D01*
X73341824Y-82596314D01*
X73341824Y-82596314D01*
G37*
G36*
X80826823Y-80056314D02*
G01*
X80987242Y-80104977D01*
X81119906Y-80175887D01*
X81135078Y-80183997D01*
X81264659Y-80290342D01*
X81371004Y-80419923D01*
X81371005Y-80419925D01*
X81450024Y-80567759D01*
X81498687Y-80728178D01*
X81515117Y-80895001D01*
X81498687Y-81061824D01*
X81450024Y-81222243D01*
X81379114Y-81354907D01*
X81371004Y-81370079D01*
X81264659Y-81499660D01*
X81135078Y-81606005D01*
X81135076Y-81606006D01*
X80987242Y-81685025D01*
X80826823Y-81733688D01*
X80701804Y-81746001D01*
X80618196Y-81746001D01*
X80493177Y-81733688D01*
X80332758Y-81685025D01*
X80184924Y-81606006D01*
X80184922Y-81606005D01*
X80055341Y-81499660D01*
X79948996Y-81370079D01*
X79940886Y-81354907D01*
X79869976Y-81222243D01*
X79821313Y-81061824D01*
X79804883Y-80895001D01*
X79821313Y-80728178D01*
X79869976Y-80567759D01*
X79948995Y-80419925D01*
X79948996Y-80419923D01*
X80055341Y-80290342D01*
X80184922Y-80183997D01*
X80200094Y-80175887D01*
X80332758Y-80104977D01*
X80493177Y-80056314D01*
X80618196Y-80044001D01*
X80701804Y-80044001D01*
X80826823Y-80056314D01*
X80826823Y-80056314D01*
G37*
G36*
X73341824Y-80056314D02*
G01*
X73502243Y-80104977D01*
X73634907Y-80175887D01*
X73650079Y-80183997D01*
X73779660Y-80290342D01*
X73886005Y-80419923D01*
X73886006Y-80419925D01*
X73965025Y-80567759D01*
X74013688Y-80728178D01*
X74030118Y-80895001D01*
X74013688Y-81061824D01*
X73965025Y-81222243D01*
X73894115Y-81354907D01*
X73886005Y-81370079D01*
X73779660Y-81499660D01*
X73650079Y-81606005D01*
X73650077Y-81606006D01*
X73502243Y-81685025D01*
X73341824Y-81733688D01*
X73216805Y-81746001D01*
X73133197Y-81746001D01*
X73008178Y-81733688D01*
X72847759Y-81685025D01*
X72699925Y-81606006D01*
X72699923Y-81606005D01*
X72570342Y-81499660D01*
X72463997Y-81370079D01*
X72455887Y-81354907D01*
X72384977Y-81222243D01*
X72336314Y-81061824D01*
X72319884Y-80895001D01*
X72336314Y-80728178D01*
X72384977Y-80567759D01*
X72463996Y-80419925D01*
X72463997Y-80419923D01*
X72570342Y-80290342D01*
X72699923Y-80183997D01*
X72715095Y-80175887D01*
X72847759Y-80104977D01*
X73008178Y-80056314D01*
X73133197Y-80044001D01*
X73216805Y-80044001D01*
X73341824Y-80056314D01*
X73341824Y-80056314D01*
G37*
G36*
X83501824Y-80056314D02*
G01*
X83662243Y-80104977D01*
X83794907Y-80175887D01*
X83810079Y-80183997D01*
X83939660Y-80290342D01*
X84046005Y-80419923D01*
X84046006Y-80419925D01*
X84125025Y-80567759D01*
X84173688Y-80728178D01*
X84190118Y-80895001D01*
X84173688Y-81061824D01*
X84125025Y-81222243D01*
X84054115Y-81354907D01*
X84046005Y-81370079D01*
X83939660Y-81499660D01*
X83810079Y-81606005D01*
X83810077Y-81606006D01*
X83662243Y-81685025D01*
X83501824Y-81733688D01*
X83376805Y-81746001D01*
X83293197Y-81746001D01*
X83168178Y-81733688D01*
X83007759Y-81685025D01*
X82859925Y-81606006D01*
X82859923Y-81606005D01*
X82730342Y-81499660D01*
X82623997Y-81370079D01*
X82615887Y-81354907D01*
X82544977Y-81222243D01*
X82496314Y-81061824D01*
X82479884Y-80895001D01*
X82496314Y-80728178D01*
X82544977Y-80567759D01*
X82623996Y-80419925D01*
X82623997Y-80419923D01*
X82730342Y-80290342D01*
X82859923Y-80183997D01*
X82875095Y-80175887D01*
X83007759Y-80104977D01*
X83168178Y-80056314D01*
X83293197Y-80044001D01*
X83376805Y-80044001D01*
X83501824Y-80056314D01*
X83501824Y-80056314D01*
G37*
G36*
X70666823Y-80056314D02*
G01*
X70827242Y-80104977D01*
X70959906Y-80175887D01*
X70975078Y-80183997D01*
X71104659Y-80290342D01*
X71211004Y-80419923D01*
X71211005Y-80419925D01*
X71290024Y-80567759D01*
X71338687Y-80728178D01*
X71355117Y-80895001D01*
X71338687Y-81061824D01*
X71290024Y-81222243D01*
X71219114Y-81354907D01*
X71211004Y-81370079D01*
X71104659Y-81499660D01*
X70975078Y-81606005D01*
X70975076Y-81606006D01*
X70827242Y-81685025D01*
X70666823Y-81733688D01*
X70541804Y-81746001D01*
X70458196Y-81746001D01*
X70333177Y-81733688D01*
X70172758Y-81685025D01*
X70024924Y-81606006D01*
X70024922Y-81606005D01*
X69895341Y-81499660D01*
X69788996Y-81370079D01*
X69780886Y-81354907D01*
X69709976Y-81222243D01*
X69661313Y-81061824D01*
X69644883Y-80895001D01*
X69661313Y-80728178D01*
X69709976Y-80567759D01*
X69788995Y-80419925D01*
X69788996Y-80419923D01*
X69895341Y-80290342D01*
X70024922Y-80183997D01*
X70040094Y-80175887D01*
X70172758Y-80104977D01*
X70333177Y-80056314D01*
X70458196Y-80044001D01*
X70541804Y-80044001D01*
X70666823Y-80056314D01*
X70666823Y-80056314D01*
G37*
G36*
X80826823Y-77516314D02*
G01*
X80987242Y-77564977D01*
X81119906Y-77635887D01*
X81135078Y-77643997D01*
X81264659Y-77750342D01*
X81371004Y-77879923D01*
X81371005Y-77879925D01*
X81450024Y-78027759D01*
X81498687Y-78188178D01*
X81515117Y-78355001D01*
X81498687Y-78521824D01*
X81450024Y-78682243D01*
X81379114Y-78814907D01*
X81371004Y-78830079D01*
X81264659Y-78959660D01*
X81135078Y-79066005D01*
X81135076Y-79066006D01*
X80987242Y-79145025D01*
X80826823Y-79193688D01*
X80701804Y-79206001D01*
X80618196Y-79206001D01*
X80493177Y-79193688D01*
X80332758Y-79145025D01*
X80184924Y-79066006D01*
X80184922Y-79066005D01*
X80055341Y-78959660D01*
X79948996Y-78830079D01*
X79940886Y-78814907D01*
X79869976Y-78682243D01*
X79821313Y-78521824D01*
X79804883Y-78355001D01*
X79821313Y-78188178D01*
X79869976Y-78027759D01*
X79948995Y-77879925D01*
X79948996Y-77879923D01*
X80055341Y-77750342D01*
X80184922Y-77643997D01*
X80200094Y-77635887D01*
X80332758Y-77564977D01*
X80493177Y-77516314D01*
X80618196Y-77504001D01*
X80701804Y-77504001D01*
X80826823Y-77516314D01*
X80826823Y-77516314D01*
G37*
G36*
X73341824Y-77516314D02*
G01*
X73502243Y-77564977D01*
X73634907Y-77635887D01*
X73650079Y-77643997D01*
X73779660Y-77750342D01*
X73886005Y-77879923D01*
X73886006Y-77879925D01*
X73965025Y-78027759D01*
X74013688Y-78188178D01*
X74030118Y-78355001D01*
X74013688Y-78521824D01*
X73965025Y-78682243D01*
X73894115Y-78814907D01*
X73886005Y-78830079D01*
X73779660Y-78959660D01*
X73650079Y-79066005D01*
X73650077Y-79066006D01*
X73502243Y-79145025D01*
X73341824Y-79193688D01*
X73216805Y-79206001D01*
X73133197Y-79206001D01*
X73008178Y-79193688D01*
X72847759Y-79145025D01*
X72699925Y-79066006D01*
X72699923Y-79066005D01*
X72570342Y-78959660D01*
X72463997Y-78830079D01*
X72455887Y-78814907D01*
X72384977Y-78682243D01*
X72336314Y-78521824D01*
X72319884Y-78355001D01*
X72336314Y-78188178D01*
X72384977Y-78027759D01*
X72463996Y-77879925D01*
X72463997Y-77879923D01*
X72570342Y-77750342D01*
X72699923Y-77643997D01*
X72715095Y-77635887D01*
X72847759Y-77564977D01*
X73008178Y-77516314D01*
X73133197Y-77504001D01*
X73216805Y-77504001D01*
X73341824Y-77516314D01*
X73341824Y-77516314D01*
G37*
G36*
X83501824Y-77516314D02*
G01*
X83662243Y-77564977D01*
X83794907Y-77635887D01*
X83810079Y-77643997D01*
X83939660Y-77750342D01*
X84046005Y-77879923D01*
X84046006Y-77879925D01*
X84125025Y-78027759D01*
X84173688Y-78188178D01*
X84190118Y-78355001D01*
X84173688Y-78521824D01*
X84125025Y-78682243D01*
X84054115Y-78814907D01*
X84046005Y-78830079D01*
X83939660Y-78959660D01*
X83810079Y-79066005D01*
X83810077Y-79066006D01*
X83662243Y-79145025D01*
X83501824Y-79193688D01*
X83376805Y-79206001D01*
X83293197Y-79206001D01*
X83168178Y-79193688D01*
X83007759Y-79145025D01*
X82859925Y-79066006D01*
X82859923Y-79066005D01*
X82730342Y-78959660D01*
X82623997Y-78830079D01*
X82615887Y-78814907D01*
X82544977Y-78682243D01*
X82496314Y-78521824D01*
X82479884Y-78355001D01*
X82496314Y-78188178D01*
X82544977Y-78027759D01*
X82623996Y-77879925D01*
X82623997Y-77879923D01*
X82730342Y-77750342D01*
X82859923Y-77643997D01*
X82875095Y-77635887D01*
X83007759Y-77564977D01*
X83168178Y-77516314D01*
X83293197Y-77504001D01*
X83376805Y-77504001D01*
X83501824Y-77516314D01*
X83501824Y-77516314D01*
G37*
G36*
X70666823Y-77516314D02*
G01*
X70827242Y-77564977D01*
X70959906Y-77635887D01*
X70975078Y-77643997D01*
X71104659Y-77750342D01*
X71211004Y-77879923D01*
X71211005Y-77879925D01*
X71290024Y-78027759D01*
X71338687Y-78188178D01*
X71355117Y-78355001D01*
X71338687Y-78521824D01*
X71290024Y-78682243D01*
X71219114Y-78814907D01*
X71211004Y-78830079D01*
X71104659Y-78959660D01*
X70975078Y-79066005D01*
X70975076Y-79066006D01*
X70827242Y-79145025D01*
X70666823Y-79193688D01*
X70541804Y-79206001D01*
X70458196Y-79206001D01*
X70333177Y-79193688D01*
X70172758Y-79145025D01*
X70024924Y-79066006D01*
X70024922Y-79066005D01*
X69895341Y-78959660D01*
X69788996Y-78830079D01*
X69780886Y-78814907D01*
X69709976Y-78682243D01*
X69661313Y-78521824D01*
X69644883Y-78355001D01*
X69661313Y-78188178D01*
X69709976Y-78027759D01*
X69788995Y-77879925D01*
X69788996Y-77879923D01*
X69895341Y-77750342D01*
X70024922Y-77643997D01*
X70040094Y-77635887D01*
X70172758Y-77564977D01*
X70333177Y-77516314D01*
X70458196Y-77504001D01*
X70541804Y-77504001D01*
X70666823Y-77516314D01*
X70666823Y-77516314D01*
G37*
G36*
X70666823Y-74976314D02*
G01*
X70827242Y-75024977D01*
X70959906Y-75095887D01*
X70975078Y-75103997D01*
X71104659Y-75210342D01*
X71211004Y-75339923D01*
X71211005Y-75339925D01*
X71290024Y-75487759D01*
X71338687Y-75648178D01*
X71355117Y-75815001D01*
X71338687Y-75981824D01*
X71290024Y-76142243D01*
X71219114Y-76274907D01*
X71211004Y-76290079D01*
X71104659Y-76419660D01*
X70975078Y-76526005D01*
X70975076Y-76526006D01*
X70827242Y-76605025D01*
X70666823Y-76653688D01*
X70541804Y-76666001D01*
X70458196Y-76666001D01*
X70333177Y-76653688D01*
X70172758Y-76605025D01*
X70024924Y-76526006D01*
X70024922Y-76526005D01*
X69895341Y-76419660D01*
X69788996Y-76290079D01*
X69780886Y-76274907D01*
X69709976Y-76142243D01*
X69661313Y-75981824D01*
X69644883Y-75815001D01*
X69661313Y-75648178D01*
X69709976Y-75487759D01*
X69788995Y-75339925D01*
X69788996Y-75339923D01*
X69895341Y-75210342D01*
X70024922Y-75103997D01*
X70040094Y-75095887D01*
X70172758Y-75024977D01*
X70333177Y-74976314D01*
X70458196Y-74964001D01*
X70541804Y-74964001D01*
X70666823Y-74976314D01*
X70666823Y-74976314D01*
G37*
G36*
X80826823Y-74976314D02*
G01*
X80987242Y-75024977D01*
X81119906Y-75095887D01*
X81135078Y-75103997D01*
X81264659Y-75210342D01*
X81371004Y-75339923D01*
X81371005Y-75339925D01*
X81450024Y-75487759D01*
X81498687Y-75648178D01*
X81515117Y-75815001D01*
X81498687Y-75981824D01*
X81450024Y-76142243D01*
X81379114Y-76274907D01*
X81371004Y-76290079D01*
X81264659Y-76419660D01*
X81135078Y-76526005D01*
X81135076Y-76526006D01*
X80987242Y-76605025D01*
X80826823Y-76653688D01*
X80701804Y-76666001D01*
X80618196Y-76666001D01*
X80493177Y-76653688D01*
X80332758Y-76605025D01*
X80184924Y-76526006D01*
X80184922Y-76526005D01*
X80055341Y-76419660D01*
X79948996Y-76290079D01*
X79940886Y-76274907D01*
X79869976Y-76142243D01*
X79821313Y-75981824D01*
X79804883Y-75815001D01*
X79821313Y-75648178D01*
X79869976Y-75487759D01*
X79948995Y-75339925D01*
X79948996Y-75339923D01*
X80055341Y-75210342D01*
X80184922Y-75103997D01*
X80200094Y-75095887D01*
X80332758Y-75024977D01*
X80493177Y-74976314D01*
X80618196Y-74964001D01*
X80701804Y-74964001D01*
X80826823Y-74976314D01*
X80826823Y-74976314D01*
G37*
G36*
X83501824Y-74976314D02*
G01*
X83662243Y-75024977D01*
X83794907Y-75095887D01*
X83810079Y-75103997D01*
X83939660Y-75210342D01*
X84046005Y-75339923D01*
X84046006Y-75339925D01*
X84125025Y-75487759D01*
X84173688Y-75648178D01*
X84190118Y-75815001D01*
X84173688Y-75981824D01*
X84125025Y-76142243D01*
X84054115Y-76274907D01*
X84046005Y-76290079D01*
X83939660Y-76419660D01*
X83810079Y-76526005D01*
X83810077Y-76526006D01*
X83662243Y-76605025D01*
X83501824Y-76653688D01*
X83376805Y-76666001D01*
X83293197Y-76666001D01*
X83168178Y-76653688D01*
X83007759Y-76605025D01*
X82859925Y-76526006D01*
X82859923Y-76526005D01*
X82730342Y-76419660D01*
X82623997Y-76290079D01*
X82615887Y-76274907D01*
X82544977Y-76142243D01*
X82496314Y-75981824D01*
X82479884Y-75815001D01*
X82496314Y-75648178D01*
X82544977Y-75487759D01*
X82623996Y-75339925D01*
X82623997Y-75339923D01*
X82730342Y-75210342D01*
X82859923Y-75103997D01*
X82875095Y-75095887D01*
X83007759Y-75024977D01*
X83168178Y-74976314D01*
X83293197Y-74964001D01*
X83376805Y-74964001D01*
X83501824Y-74976314D01*
X83501824Y-74976314D01*
G37*
G36*
X73341824Y-74976314D02*
G01*
X73502243Y-75024977D01*
X73634907Y-75095887D01*
X73650079Y-75103997D01*
X73779660Y-75210342D01*
X73886005Y-75339923D01*
X73886006Y-75339925D01*
X73965025Y-75487759D01*
X74013688Y-75648178D01*
X74030118Y-75815001D01*
X74013688Y-75981824D01*
X73965025Y-76142243D01*
X73894115Y-76274907D01*
X73886005Y-76290079D01*
X73779660Y-76419660D01*
X73650079Y-76526005D01*
X73650077Y-76526006D01*
X73502243Y-76605025D01*
X73341824Y-76653688D01*
X73216805Y-76666001D01*
X73133197Y-76666001D01*
X73008178Y-76653688D01*
X72847759Y-76605025D01*
X72699925Y-76526006D01*
X72699923Y-76526005D01*
X72570342Y-76419660D01*
X72463997Y-76290079D01*
X72455887Y-76274907D01*
X72384977Y-76142243D01*
X72336314Y-75981824D01*
X72319884Y-75815001D01*
X72336314Y-75648178D01*
X72384977Y-75487759D01*
X72463996Y-75339925D01*
X72463997Y-75339923D01*
X72570342Y-75210342D01*
X72699923Y-75103997D01*
X72715095Y-75095887D01*
X72847759Y-75024977D01*
X73008178Y-74976314D01*
X73133197Y-74964001D01*
X73216805Y-74964001D01*
X73341824Y-74976314D01*
X73341824Y-74976314D01*
G37*
G36*
X83501824Y-72436314D02*
G01*
X83662243Y-72484977D01*
X83794907Y-72555887D01*
X83810079Y-72563997D01*
X83939660Y-72670342D01*
X84046005Y-72799923D01*
X84046006Y-72799925D01*
X84125025Y-72947759D01*
X84173688Y-73108178D01*
X84190118Y-73275001D01*
X84173688Y-73441824D01*
X84125025Y-73602243D01*
X84054115Y-73734907D01*
X84046005Y-73750079D01*
X83939660Y-73879660D01*
X83810079Y-73986005D01*
X83810077Y-73986006D01*
X83662243Y-74065025D01*
X83501824Y-74113688D01*
X83376805Y-74126001D01*
X83293197Y-74126001D01*
X83168178Y-74113688D01*
X83007759Y-74065025D01*
X82859925Y-73986006D01*
X82859923Y-73986005D01*
X82730342Y-73879660D01*
X82623997Y-73750079D01*
X82615887Y-73734907D01*
X82544977Y-73602243D01*
X82496314Y-73441824D01*
X82479884Y-73275001D01*
X82496314Y-73108178D01*
X82544977Y-72947759D01*
X82623996Y-72799925D01*
X82623997Y-72799923D01*
X82730342Y-72670342D01*
X82859923Y-72563997D01*
X82875095Y-72555887D01*
X83007759Y-72484977D01*
X83168178Y-72436314D01*
X83293197Y-72424001D01*
X83376805Y-72424001D01*
X83501824Y-72436314D01*
X83501824Y-72436314D01*
G37*
G36*
X70666823Y-72436314D02*
G01*
X70827242Y-72484977D01*
X70959906Y-72555887D01*
X70975078Y-72563997D01*
X71104659Y-72670342D01*
X71211004Y-72799923D01*
X71211005Y-72799925D01*
X71290024Y-72947759D01*
X71338687Y-73108178D01*
X71355117Y-73275001D01*
X71338687Y-73441824D01*
X71290024Y-73602243D01*
X71219114Y-73734907D01*
X71211004Y-73750079D01*
X71104659Y-73879660D01*
X70975078Y-73986005D01*
X70975076Y-73986006D01*
X70827242Y-74065025D01*
X70666823Y-74113688D01*
X70541804Y-74126001D01*
X70458196Y-74126001D01*
X70333177Y-74113688D01*
X70172758Y-74065025D01*
X70024924Y-73986006D01*
X70024922Y-73986005D01*
X69895341Y-73879660D01*
X69788996Y-73750079D01*
X69780886Y-73734907D01*
X69709976Y-73602243D01*
X69661313Y-73441824D01*
X69644883Y-73275001D01*
X69661313Y-73108178D01*
X69709976Y-72947759D01*
X69788995Y-72799925D01*
X69788996Y-72799923D01*
X69895341Y-72670342D01*
X70024922Y-72563997D01*
X70040094Y-72555887D01*
X70172758Y-72484977D01*
X70333177Y-72436314D01*
X70458196Y-72424001D01*
X70541804Y-72424001D01*
X70666823Y-72436314D01*
X70666823Y-72436314D01*
G37*
G36*
X80826823Y-72436314D02*
G01*
X80987242Y-72484977D01*
X81119906Y-72555887D01*
X81135078Y-72563997D01*
X81264659Y-72670342D01*
X81371004Y-72799923D01*
X81371005Y-72799925D01*
X81450024Y-72947759D01*
X81498687Y-73108178D01*
X81515117Y-73275001D01*
X81498687Y-73441824D01*
X81450024Y-73602243D01*
X81379114Y-73734907D01*
X81371004Y-73750079D01*
X81264659Y-73879660D01*
X81135078Y-73986005D01*
X81135076Y-73986006D01*
X80987242Y-74065025D01*
X80826823Y-74113688D01*
X80701804Y-74126001D01*
X80618196Y-74126001D01*
X80493177Y-74113688D01*
X80332758Y-74065025D01*
X80184924Y-73986006D01*
X80184922Y-73986005D01*
X80055341Y-73879660D01*
X79948996Y-73750079D01*
X79940886Y-73734907D01*
X79869976Y-73602243D01*
X79821313Y-73441824D01*
X79804883Y-73275001D01*
X79821313Y-73108178D01*
X79869976Y-72947759D01*
X79948995Y-72799925D01*
X79948996Y-72799923D01*
X80055341Y-72670342D01*
X80184922Y-72563997D01*
X80200094Y-72555887D01*
X80332758Y-72484977D01*
X80493177Y-72436314D01*
X80618196Y-72424001D01*
X80701804Y-72424001D01*
X80826823Y-72436314D01*
X80826823Y-72436314D01*
G37*
G36*
X73341824Y-72436314D02*
G01*
X73502243Y-72484977D01*
X73634907Y-72555887D01*
X73650079Y-72563997D01*
X73779660Y-72670342D01*
X73886005Y-72799923D01*
X73886006Y-72799925D01*
X73965025Y-72947759D01*
X74013688Y-73108178D01*
X74030118Y-73275001D01*
X74013688Y-73441824D01*
X73965025Y-73602243D01*
X73894115Y-73734907D01*
X73886005Y-73750079D01*
X73779660Y-73879660D01*
X73650079Y-73986005D01*
X73650077Y-73986006D01*
X73502243Y-74065025D01*
X73341824Y-74113688D01*
X73216805Y-74126001D01*
X73133197Y-74126001D01*
X73008178Y-74113688D01*
X72847759Y-74065025D01*
X72699925Y-73986006D01*
X72699923Y-73986005D01*
X72570342Y-73879660D01*
X72463997Y-73750079D01*
X72455887Y-73734907D01*
X72384977Y-73602243D01*
X72336314Y-73441824D01*
X72319884Y-73275001D01*
X72336314Y-73108178D01*
X72384977Y-72947759D01*
X72463996Y-72799925D01*
X72463997Y-72799923D01*
X72570342Y-72670342D01*
X72699923Y-72563997D01*
X72715095Y-72555887D01*
X72847759Y-72484977D01*
X73008178Y-72436314D01*
X73133197Y-72424001D01*
X73216805Y-72424001D01*
X73341824Y-72436314D01*
X73341824Y-72436314D01*
G37*
G36*
X70666823Y-69896314D02*
G01*
X70827242Y-69944977D01*
X70959906Y-70015887D01*
X70975078Y-70023997D01*
X71104659Y-70130342D01*
X71211004Y-70259923D01*
X71211005Y-70259925D01*
X71290024Y-70407759D01*
X71338687Y-70568178D01*
X71355117Y-70735001D01*
X71338687Y-70901824D01*
X71290024Y-71062243D01*
X71219114Y-71194907D01*
X71211004Y-71210079D01*
X71104659Y-71339660D01*
X70975078Y-71446005D01*
X70975076Y-71446006D01*
X70827242Y-71525025D01*
X70666823Y-71573688D01*
X70541804Y-71586001D01*
X70458196Y-71586001D01*
X70333177Y-71573688D01*
X70172758Y-71525025D01*
X70024924Y-71446006D01*
X70024922Y-71446005D01*
X69895341Y-71339660D01*
X69788996Y-71210079D01*
X69780886Y-71194907D01*
X69709976Y-71062243D01*
X69661313Y-70901824D01*
X69644883Y-70735001D01*
X69661313Y-70568178D01*
X69709976Y-70407759D01*
X69788995Y-70259925D01*
X69788996Y-70259923D01*
X69895341Y-70130342D01*
X70024922Y-70023997D01*
X70040094Y-70015887D01*
X70172758Y-69944977D01*
X70333177Y-69896314D01*
X70458196Y-69884001D01*
X70541804Y-69884001D01*
X70666823Y-69896314D01*
X70666823Y-69896314D01*
G37*
G36*
X80826823Y-69896314D02*
G01*
X80987242Y-69944977D01*
X81119906Y-70015887D01*
X81135078Y-70023997D01*
X81264659Y-70130342D01*
X81371004Y-70259923D01*
X81371005Y-70259925D01*
X81450024Y-70407759D01*
X81498687Y-70568178D01*
X81515117Y-70735001D01*
X81498687Y-70901824D01*
X81450024Y-71062243D01*
X81379114Y-71194907D01*
X81371004Y-71210079D01*
X81264659Y-71339660D01*
X81135078Y-71446005D01*
X81135076Y-71446006D01*
X80987242Y-71525025D01*
X80826823Y-71573688D01*
X80701804Y-71586001D01*
X80618196Y-71586001D01*
X80493177Y-71573688D01*
X80332758Y-71525025D01*
X80184924Y-71446006D01*
X80184922Y-71446005D01*
X80055341Y-71339660D01*
X79948996Y-71210079D01*
X79940886Y-71194907D01*
X79869976Y-71062243D01*
X79821313Y-70901824D01*
X79804883Y-70735001D01*
X79821313Y-70568178D01*
X79869976Y-70407759D01*
X79948995Y-70259925D01*
X79948996Y-70259923D01*
X80055341Y-70130342D01*
X80184922Y-70023997D01*
X80200094Y-70015887D01*
X80332758Y-69944977D01*
X80493177Y-69896314D01*
X80618196Y-69884001D01*
X80701804Y-69884001D01*
X80826823Y-69896314D01*
X80826823Y-69896314D01*
G37*
G36*
X73341824Y-69896314D02*
G01*
X73502243Y-69944977D01*
X73634907Y-70015887D01*
X73650079Y-70023997D01*
X73779660Y-70130342D01*
X73886005Y-70259923D01*
X73886006Y-70259925D01*
X73965025Y-70407759D01*
X74013688Y-70568178D01*
X74030118Y-70735001D01*
X74013688Y-70901824D01*
X73965025Y-71062243D01*
X73894115Y-71194907D01*
X73886005Y-71210079D01*
X73779660Y-71339660D01*
X73650079Y-71446005D01*
X73650077Y-71446006D01*
X73502243Y-71525025D01*
X73341824Y-71573688D01*
X73216805Y-71586001D01*
X73133197Y-71586001D01*
X73008178Y-71573688D01*
X72847759Y-71525025D01*
X72699925Y-71446006D01*
X72699923Y-71446005D01*
X72570342Y-71339660D01*
X72463997Y-71210079D01*
X72455887Y-71194907D01*
X72384977Y-71062243D01*
X72336314Y-70901824D01*
X72319884Y-70735001D01*
X72336314Y-70568178D01*
X72384977Y-70407759D01*
X72463996Y-70259925D01*
X72463997Y-70259923D01*
X72570342Y-70130342D01*
X72699923Y-70023997D01*
X72715095Y-70015887D01*
X72847759Y-69944977D01*
X73008178Y-69896314D01*
X73133197Y-69884001D01*
X73216805Y-69884001D01*
X73341824Y-69896314D01*
X73341824Y-69896314D01*
G37*
G36*
X83501824Y-69896314D02*
G01*
X83662243Y-69944977D01*
X83794907Y-70015887D01*
X83810079Y-70023997D01*
X83939660Y-70130342D01*
X84046005Y-70259923D01*
X84046006Y-70259925D01*
X84125025Y-70407759D01*
X84173688Y-70568178D01*
X84190118Y-70735001D01*
X84173688Y-70901824D01*
X84125025Y-71062243D01*
X84054115Y-71194907D01*
X84046005Y-71210079D01*
X83939660Y-71339660D01*
X83810079Y-71446005D01*
X83810077Y-71446006D01*
X83662243Y-71525025D01*
X83501824Y-71573688D01*
X83376805Y-71586001D01*
X83293197Y-71586001D01*
X83168178Y-71573688D01*
X83007759Y-71525025D01*
X82859925Y-71446006D01*
X82859923Y-71446005D01*
X82730342Y-71339660D01*
X82623997Y-71210079D01*
X82615887Y-71194907D01*
X82544977Y-71062243D01*
X82496314Y-70901824D01*
X82479884Y-70735001D01*
X82496314Y-70568178D01*
X82544977Y-70407759D01*
X82623996Y-70259925D01*
X82623997Y-70259923D01*
X82730342Y-70130342D01*
X82859923Y-70023997D01*
X82875095Y-70015887D01*
X83007759Y-69944977D01*
X83168178Y-69896314D01*
X83293197Y-69884001D01*
X83376805Y-69884001D01*
X83501824Y-69896314D01*
X83501824Y-69896314D01*
G37*
G36*
X83501824Y-67356314D02*
G01*
X83662243Y-67404977D01*
X83794907Y-67475887D01*
X83810079Y-67483997D01*
X83939660Y-67590342D01*
X84046005Y-67719923D01*
X84046006Y-67719925D01*
X84125025Y-67867759D01*
X84173688Y-68028178D01*
X84190118Y-68195001D01*
X84173688Y-68361824D01*
X84125025Y-68522243D01*
X84054115Y-68654907D01*
X84046005Y-68670079D01*
X83939660Y-68799660D01*
X83810079Y-68906005D01*
X83810077Y-68906006D01*
X83662243Y-68985025D01*
X83501824Y-69033688D01*
X83376805Y-69046001D01*
X83293197Y-69046001D01*
X83168178Y-69033688D01*
X83007759Y-68985025D01*
X82859925Y-68906006D01*
X82859923Y-68906005D01*
X82730342Y-68799660D01*
X82623997Y-68670079D01*
X82615887Y-68654907D01*
X82544977Y-68522243D01*
X82496314Y-68361824D01*
X82479884Y-68195001D01*
X82496314Y-68028178D01*
X82544977Y-67867759D01*
X82623996Y-67719925D01*
X82623997Y-67719923D01*
X82730342Y-67590342D01*
X82859923Y-67483997D01*
X82875095Y-67475887D01*
X83007759Y-67404977D01*
X83168178Y-67356314D01*
X83293197Y-67344001D01*
X83376805Y-67344001D01*
X83501824Y-67356314D01*
X83501824Y-67356314D01*
G37*
G36*
X73341824Y-67356314D02*
G01*
X73502243Y-67404977D01*
X73634907Y-67475887D01*
X73650079Y-67483997D01*
X73779660Y-67590342D01*
X73886005Y-67719923D01*
X73886006Y-67719925D01*
X73965025Y-67867759D01*
X74013688Y-68028178D01*
X74030118Y-68195001D01*
X74013688Y-68361824D01*
X73965025Y-68522243D01*
X73894115Y-68654907D01*
X73886005Y-68670079D01*
X73779660Y-68799660D01*
X73650079Y-68906005D01*
X73650077Y-68906006D01*
X73502243Y-68985025D01*
X73341824Y-69033688D01*
X73216805Y-69046001D01*
X73133197Y-69046001D01*
X73008178Y-69033688D01*
X72847759Y-68985025D01*
X72699925Y-68906006D01*
X72699923Y-68906005D01*
X72570342Y-68799660D01*
X72463997Y-68670079D01*
X72455887Y-68654907D01*
X72384977Y-68522243D01*
X72336314Y-68361824D01*
X72319884Y-68195001D01*
X72336314Y-68028178D01*
X72384977Y-67867759D01*
X72463996Y-67719925D01*
X72463997Y-67719923D01*
X72570342Y-67590342D01*
X72699923Y-67483997D01*
X72715095Y-67475887D01*
X72847759Y-67404977D01*
X73008178Y-67356314D01*
X73133197Y-67344001D01*
X73216805Y-67344001D01*
X73341824Y-67356314D01*
X73341824Y-67356314D01*
G37*
G36*
X80826823Y-67356314D02*
G01*
X80987242Y-67404977D01*
X81119906Y-67475887D01*
X81135078Y-67483997D01*
X81264659Y-67590342D01*
X81371004Y-67719923D01*
X81371005Y-67719925D01*
X81450024Y-67867759D01*
X81498687Y-68028178D01*
X81515117Y-68195001D01*
X81498687Y-68361824D01*
X81450024Y-68522243D01*
X81379114Y-68654907D01*
X81371004Y-68670079D01*
X81264659Y-68799660D01*
X81135078Y-68906005D01*
X81135076Y-68906006D01*
X80987242Y-68985025D01*
X80826823Y-69033688D01*
X80701804Y-69046001D01*
X80618196Y-69046001D01*
X80493177Y-69033688D01*
X80332758Y-68985025D01*
X80184924Y-68906006D01*
X80184922Y-68906005D01*
X80055341Y-68799660D01*
X79948996Y-68670079D01*
X79940886Y-68654907D01*
X79869976Y-68522243D01*
X79821313Y-68361824D01*
X79804883Y-68195001D01*
X79821313Y-68028178D01*
X79869976Y-67867759D01*
X79948995Y-67719925D01*
X79948996Y-67719923D01*
X80055341Y-67590342D01*
X80184922Y-67483997D01*
X80200094Y-67475887D01*
X80332758Y-67404977D01*
X80493177Y-67356314D01*
X80618196Y-67344001D01*
X80701804Y-67344001D01*
X80826823Y-67356314D01*
X80826823Y-67356314D01*
G37*
G36*
X70666823Y-67356314D02*
G01*
X70827242Y-67404977D01*
X70959906Y-67475887D01*
X70975078Y-67483997D01*
X71104659Y-67590342D01*
X71211004Y-67719923D01*
X71211005Y-67719925D01*
X71290024Y-67867759D01*
X71338687Y-68028178D01*
X71355117Y-68195001D01*
X71338687Y-68361824D01*
X71290024Y-68522243D01*
X71219114Y-68654907D01*
X71211004Y-68670079D01*
X71104659Y-68799660D01*
X70975078Y-68906005D01*
X70975076Y-68906006D01*
X70827242Y-68985025D01*
X70666823Y-69033688D01*
X70541804Y-69046001D01*
X70458196Y-69046001D01*
X70333177Y-69033688D01*
X70172758Y-68985025D01*
X70024924Y-68906006D01*
X70024922Y-68906005D01*
X69895341Y-68799660D01*
X69788996Y-68670079D01*
X69780886Y-68654907D01*
X69709976Y-68522243D01*
X69661313Y-68361824D01*
X69644883Y-68195001D01*
X69661313Y-68028178D01*
X69709976Y-67867759D01*
X69788995Y-67719925D01*
X69788996Y-67719923D01*
X69895341Y-67590342D01*
X70024922Y-67483997D01*
X70040094Y-67475887D01*
X70172758Y-67404977D01*
X70333177Y-67356314D01*
X70458196Y-67344001D01*
X70541804Y-67344001D01*
X70666823Y-67356314D01*
X70666823Y-67356314D01*
G37*
G36*
X83501824Y-64816314D02*
G01*
X83662243Y-64864977D01*
X83794907Y-64935887D01*
X83810079Y-64943997D01*
X83939660Y-65050342D01*
X84046005Y-65179923D01*
X84046006Y-65179925D01*
X84125025Y-65327759D01*
X84173688Y-65488178D01*
X84190118Y-65655001D01*
X84173688Y-65821824D01*
X84125025Y-65982243D01*
X84054115Y-66114907D01*
X84046005Y-66130079D01*
X83939660Y-66259660D01*
X83810079Y-66366005D01*
X83810077Y-66366006D01*
X83662243Y-66445025D01*
X83501824Y-66493688D01*
X83376805Y-66506001D01*
X83293197Y-66506001D01*
X83168178Y-66493688D01*
X83007759Y-66445025D01*
X82859925Y-66366006D01*
X82859923Y-66366005D01*
X82730342Y-66259660D01*
X82623997Y-66130079D01*
X82615887Y-66114907D01*
X82544977Y-65982243D01*
X82496314Y-65821824D01*
X82479884Y-65655001D01*
X82496314Y-65488178D01*
X82544977Y-65327759D01*
X82623996Y-65179925D01*
X82623997Y-65179923D01*
X82730342Y-65050342D01*
X82859923Y-64943997D01*
X82875095Y-64935887D01*
X83007759Y-64864977D01*
X83168178Y-64816314D01*
X83293197Y-64804001D01*
X83376805Y-64804001D01*
X83501824Y-64816314D01*
X83501824Y-64816314D01*
G37*
G36*
X70666823Y-64816314D02*
G01*
X70827242Y-64864977D01*
X70959906Y-64935887D01*
X70975078Y-64943997D01*
X71104659Y-65050342D01*
X71211004Y-65179923D01*
X71211005Y-65179925D01*
X71290024Y-65327759D01*
X71338687Y-65488178D01*
X71355117Y-65655001D01*
X71338687Y-65821824D01*
X71290024Y-65982243D01*
X71219114Y-66114907D01*
X71211004Y-66130079D01*
X71104659Y-66259660D01*
X70975078Y-66366005D01*
X70975076Y-66366006D01*
X70827242Y-66445025D01*
X70666823Y-66493688D01*
X70541804Y-66506001D01*
X70458196Y-66506001D01*
X70333177Y-66493688D01*
X70172758Y-66445025D01*
X70024924Y-66366006D01*
X70024922Y-66366005D01*
X69895341Y-66259660D01*
X69788996Y-66130079D01*
X69780886Y-66114907D01*
X69709976Y-65982243D01*
X69661313Y-65821824D01*
X69644883Y-65655001D01*
X69661313Y-65488178D01*
X69709976Y-65327759D01*
X69788995Y-65179925D01*
X69788996Y-65179923D01*
X69895341Y-65050342D01*
X70024922Y-64943997D01*
X70040094Y-64935887D01*
X70172758Y-64864977D01*
X70333177Y-64816314D01*
X70458196Y-64804001D01*
X70541804Y-64804001D01*
X70666823Y-64816314D01*
X70666823Y-64816314D01*
G37*
G36*
X73341824Y-64816314D02*
G01*
X73502243Y-64864977D01*
X73634907Y-64935887D01*
X73650079Y-64943997D01*
X73779660Y-65050342D01*
X73886005Y-65179923D01*
X73886006Y-65179925D01*
X73965025Y-65327759D01*
X74013688Y-65488178D01*
X74030118Y-65655001D01*
X74013688Y-65821824D01*
X73965025Y-65982243D01*
X73894115Y-66114907D01*
X73886005Y-66130079D01*
X73779660Y-66259660D01*
X73650079Y-66366005D01*
X73650077Y-66366006D01*
X73502243Y-66445025D01*
X73341824Y-66493688D01*
X73216805Y-66506001D01*
X73133197Y-66506001D01*
X73008178Y-66493688D01*
X72847759Y-66445025D01*
X72699925Y-66366006D01*
X72699923Y-66366005D01*
X72570342Y-66259660D01*
X72463997Y-66130079D01*
X72455887Y-66114907D01*
X72384977Y-65982243D01*
X72336314Y-65821824D01*
X72319884Y-65655001D01*
X72336314Y-65488178D01*
X72384977Y-65327759D01*
X72463996Y-65179925D01*
X72463997Y-65179923D01*
X72570342Y-65050342D01*
X72699923Y-64943997D01*
X72715095Y-64935887D01*
X72847759Y-64864977D01*
X73008178Y-64816314D01*
X73133197Y-64804001D01*
X73216805Y-64804001D01*
X73341824Y-64816314D01*
X73341824Y-64816314D01*
G37*
G36*
X80826823Y-64816314D02*
G01*
X80987242Y-64864977D01*
X81119906Y-64935887D01*
X81135078Y-64943997D01*
X81264659Y-65050342D01*
X81371004Y-65179923D01*
X81371005Y-65179925D01*
X81450024Y-65327759D01*
X81498687Y-65488178D01*
X81515117Y-65655001D01*
X81498687Y-65821824D01*
X81450024Y-65982243D01*
X81379114Y-66114907D01*
X81371004Y-66130079D01*
X81264659Y-66259660D01*
X81135078Y-66366005D01*
X81135076Y-66366006D01*
X80987242Y-66445025D01*
X80826823Y-66493688D01*
X80701804Y-66506001D01*
X80618196Y-66506001D01*
X80493177Y-66493688D01*
X80332758Y-66445025D01*
X80184924Y-66366006D01*
X80184922Y-66366005D01*
X80055341Y-66259660D01*
X79948996Y-66130079D01*
X79940886Y-66114907D01*
X79869976Y-65982243D01*
X79821313Y-65821824D01*
X79804883Y-65655001D01*
X79821313Y-65488178D01*
X79869976Y-65327759D01*
X79948995Y-65179925D01*
X79948996Y-65179923D01*
X80055341Y-65050342D01*
X80184922Y-64943997D01*
X80200094Y-64935887D01*
X80332758Y-64864977D01*
X80493177Y-64816314D01*
X80618196Y-64804001D01*
X80701804Y-64804001D01*
X80826823Y-64816314D01*
X80826823Y-64816314D01*
G37*
G36*
X80826823Y-62276314D02*
G01*
X80987242Y-62324977D01*
X81119906Y-62395887D01*
X81135078Y-62403997D01*
X81264659Y-62510342D01*
X81371004Y-62639923D01*
X81371005Y-62639925D01*
X81450024Y-62787759D01*
X81498687Y-62948178D01*
X81515117Y-63115001D01*
X81498687Y-63281824D01*
X81450024Y-63442243D01*
X81379114Y-63574907D01*
X81371004Y-63590079D01*
X81264659Y-63719660D01*
X81135078Y-63826005D01*
X81135076Y-63826006D01*
X80987242Y-63905025D01*
X80826823Y-63953688D01*
X80701804Y-63966001D01*
X80618196Y-63966001D01*
X80493177Y-63953688D01*
X80332758Y-63905025D01*
X80184924Y-63826006D01*
X80184922Y-63826005D01*
X80055341Y-63719660D01*
X79948996Y-63590079D01*
X79940886Y-63574907D01*
X79869976Y-63442243D01*
X79821313Y-63281824D01*
X79804883Y-63115001D01*
X79821313Y-62948178D01*
X79869976Y-62787759D01*
X79948995Y-62639925D01*
X79948996Y-62639923D01*
X80055341Y-62510342D01*
X80184922Y-62403997D01*
X80200094Y-62395887D01*
X80332758Y-62324977D01*
X80493177Y-62276314D01*
X80618196Y-62264001D01*
X80701804Y-62264001D01*
X80826823Y-62276314D01*
X80826823Y-62276314D01*
G37*
G36*
X83501824Y-62276314D02*
G01*
X83662243Y-62324977D01*
X83794907Y-62395887D01*
X83810079Y-62403997D01*
X83939660Y-62510342D01*
X84046005Y-62639923D01*
X84046006Y-62639925D01*
X84125025Y-62787759D01*
X84173688Y-62948178D01*
X84190118Y-63115001D01*
X84173688Y-63281824D01*
X84125025Y-63442243D01*
X84054115Y-63574907D01*
X84046005Y-63590079D01*
X83939660Y-63719660D01*
X83810079Y-63826005D01*
X83810077Y-63826006D01*
X83662243Y-63905025D01*
X83501824Y-63953688D01*
X83376805Y-63966001D01*
X83293197Y-63966001D01*
X83168178Y-63953688D01*
X83007759Y-63905025D01*
X82859925Y-63826006D01*
X82859923Y-63826005D01*
X82730342Y-63719660D01*
X82623997Y-63590079D01*
X82615887Y-63574907D01*
X82544977Y-63442243D01*
X82496314Y-63281824D01*
X82479884Y-63115001D01*
X82496314Y-62948178D01*
X82544977Y-62787759D01*
X82623996Y-62639925D01*
X82623997Y-62639923D01*
X82730342Y-62510342D01*
X82859923Y-62403997D01*
X82875095Y-62395887D01*
X83007759Y-62324977D01*
X83168178Y-62276314D01*
X83293197Y-62264001D01*
X83376805Y-62264001D01*
X83501824Y-62276314D01*
X83501824Y-62276314D01*
G37*
G36*
X73341824Y-62276314D02*
G01*
X73502243Y-62324977D01*
X73634907Y-62395887D01*
X73650079Y-62403997D01*
X73779660Y-62510342D01*
X73886005Y-62639923D01*
X73886006Y-62639925D01*
X73965025Y-62787759D01*
X74013688Y-62948178D01*
X74030118Y-63115001D01*
X74013688Y-63281824D01*
X73965025Y-63442243D01*
X73894115Y-63574907D01*
X73886005Y-63590079D01*
X73779660Y-63719660D01*
X73650079Y-63826005D01*
X73650077Y-63826006D01*
X73502243Y-63905025D01*
X73341824Y-63953688D01*
X73216805Y-63966001D01*
X73133197Y-63966001D01*
X73008178Y-63953688D01*
X72847759Y-63905025D01*
X72699925Y-63826006D01*
X72699923Y-63826005D01*
X72570342Y-63719660D01*
X72463997Y-63590079D01*
X72455887Y-63574907D01*
X72384977Y-63442243D01*
X72336314Y-63281824D01*
X72319884Y-63115001D01*
X72336314Y-62948178D01*
X72384977Y-62787759D01*
X72463996Y-62639925D01*
X72463997Y-62639923D01*
X72570342Y-62510342D01*
X72699923Y-62403997D01*
X72715095Y-62395887D01*
X72847759Y-62324977D01*
X73008178Y-62276314D01*
X73133197Y-62264001D01*
X73216805Y-62264001D01*
X73341824Y-62276314D01*
X73341824Y-62276314D01*
G37*
G36*
X70666823Y-62276314D02*
G01*
X70827242Y-62324977D01*
X70959906Y-62395887D01*
X70975078Y-62403997D01*
X71104659Y-62510342D01*
X71211004Y-62639923D01*
X71211005Y-62639925D01*
X71290024Y-62787759D01*
X71338687Y-62948178D01*
X71355117Y-63115001D01*
X71338687Y-63281824D01*
X71290024Y-63442243D01*
X71219114Y-63574907D01*
X71211004Y-63590079D01*
X71104659Y-63719660D01*
X70975078Y-63826005D01*
X70975076Y-63826006D01*
X70827242Y-63905025D01*
X70666823Y-63953688D01*
X70541804Y-63966001D01*
X70458196Y-63966001D01*
X70333177Y-63953688D01*
X70172758Y-63905025D01*
X70024924Y-63826006D01*
X70024922Y-63826005D01*
X69895341Y-63719660D01*
X69788996Y-63590079D01*
X69780886Y-63574907D01*
X69709976Y-63442243D01*
X69661313Y-63281824D01*
X69644883Y-63115001D01*
X69661313Y-62948178D01*
X69709976Y-62787759D01*
X69788995Y-62639925D01*
X69788996Y-62639923D01*
X69895341Y-62510342D01*
X70024922Y-62403997D01*
X70040094Y-62395887D01*
X70172758Y-62324977D01*
X70333177Y-62276314D01*
X70458196Y-62264001D01*
X70541804Y-62264001D01*
X70666823Y-62276314D01*
X70666823Y-62276314D01*
G37*
G36*
X71351000Y-61426001D02*
G01*
X69649000Y-61426001D01*
X69649000Y-59724001D01*
X71351000Y-59724001D01*
X71351000Y-61426001D01*
X71351000Y-61426001D01*
G37*
G36*
X80826823Y-59736314D02*
G01*
X80987242Y-59784977D01*
X81119906Y-59855887D01*
X81135078Y-59863997D01*
X81264659Y-59970342D01*
X81371004Y-60099923D01*
X81371005Y-60099925D01*
X81450024Y-60247759D01*
X81498687Y-60408178D01*
X81515117Y-60575001D01*
X81498687Y-60741824D01*
X81450024Y-60902243D01*
X81379114Y-61034907D01*
X81371004Y-61050079D01*
X81264659Y-61179660D01*
X81135078Y-61286005D01*
X81135076Y-61286006D01*
X80987242Y-61365025D01*
X80826823Y-61413688D01*
X80701804Y-61426001D01*
X80618196Y-61426001D01*
X80493177Y-61413688D01*
X80332758Y-61365025D01*
X80184924Y-61286006D01*
X80184922Y-61286005D01*
X80055341Y-61179660D01*
X79948996Y-61050079D01*
X79940886Y-61034907D01*
X79869976Y-60902243D01*
X79821313Y-60741824D01*
X79804883Y-60575001D01*
X79821313Y-60408178D01*
X79869976Y-60247759D01*
X79948995Y-60099925D01*
X79948996Y-60099923D01*
X80055341Y-59970342D01*
X80184922Y-59863997D01*
X80200094Y-59855887D01*
X80332758Y-59784977D01*
X80493177Y-59736314D01*
X80618196Y-59724001D01*
X80701804Y-59724001D01*
X80826823Y-59736314D01*
X80826823Y-59736314D01*
G37*
G36*
X74026001Y-61426001D02*
G01*
X72324001Y-61426001D01*
X72324001Y-59724001D01*
X74026001Y-59724001D01*
X74026001Y-61426001D01*
X74026001Y-61426001D01*
G37*
G36*
X83501824Y-59736314D02*
G01*
X83662243Y-59784977D01*
X83794907Y-59855887D01*
X83810079Y-59863997D01*
X83939660Y-59970342D01*
X84046005Y-60099923D01*
X84046006Y-60099925D01*
X84125025Y-60247759D01*
X84173688Y-60408178D01*
X84190118Y-60575001D01*
X84173688Y-60741824D01*
X84125025Y-60902243D01*
X84054115Y-61034907D01*
X84046005Y-61050079D01*
X83939660Y-61179660D01*
X83810079Y-61286005D01*
X83810077Y-61286006D01*
X83662243Y-61365025D01*
X83501824Y-61413688D01*
X83376805Y-61426001D01*
X83293197Y-61426001D01*
X83168178Y-61413688D01*
X83007759Y-61365025D01*
X82859925Y-61286006D01*
X82859923Y-61286005D01*
X82730342Y-61179660D01*
X82623997Y-61050079D01*
X82615887Y-61034907D01*
X82544977Y-60902243D01*
X82496314Y-60741824D01*
X82479884Y-60575001D01*
X82496314Y-60408178D01*
X82544977Y-60247759D01*
X82623996Y-60099925D01*
X82623997Y-60099923D01*
X82730342Y-59970342D01*
X82859923Y-59863997D01*
X82875095Y-59855887D01*
X83007759Y-59784977D01*
X83168178Y-59736314D01*
X83293197Y-59724001D01*
X83376805Y-59724001D01*
X83501824Y-59736314D01*
X83501824Y-59736314D01*
G37*
M02*
