G04 #@! TF.GenerationSoftware,KiCad,Pcbnew,(5.1.4)-1*
G04 #@! TF.CreationDate,2022-03-07T20:56:38-05:00*
G04 #@! TF.ProjectId,MB7074_to_MB7072,4d423730-3734-45f7-946f-5f4d42373037,rev?*
G04 #@! TF.SameCoordinates,Original*
G04 #@! TF.FileFunction,Copper,L2,Bot*
G04 #@! TF.FilePolarity,Positive*
%FSLAX46Y46*%
G04 Gerber Fmt 4.6, Leading zero omitted, Abs format (unit mm)*
G04 Created by KiCad (PCBNEW (5.1.4)-1) date 2022-03-07 20:56:38*
%MOMM*%
%LPD*%
G04 APERTURE LIST*
%ADD10O,1.600000X1.600000*%
%ADD11R,1.600000X1.600000*%
%ADD12C,0.800000*%
%ADD13C,0.250000*%
G04 APERTURE END LIST*
D10*
X83335001Y-60575001D03*
X73175001Y-85975001D03*
X83335001Y-63115001D03*
X73175001Y-83435001D03*
X83335001Y-65655001D03*
X73175001Y-80895001D03*
X83335001Y-68195001D03*
X73175001Y-78355001D03*
X83335001Y-70735001D03*
X73175001Y-75815001D03*
X83335001Y-73275001D03*
X73175001Y-73275001D03*
X83335001Y-75815001D03*
X73175001Y-70735001D03*
X83335001Y-78355001D03*
X73175001Y-68195001D03*
X83335001Y-80895001D03*
X73175001Y-65655001D03*
X83335001Y-83435001D03*
X73175001Y-63115001D03*
X83335001Y-85975001D03*
D11*
X73175001Y-60575001D03*
D10*
X80660000Y-60575001D03*
X70500000Y-88515001D03*
X80660000Y-63115001D03*
X70500000Y-85975001D03*
X80660000Y-65655001D03*
X70500000Y-83435001D03*
X80660000Y-68195001D03*
X70500000Y-80895001D03*
X80660000Y-70735001D03*
X70500000Y-78355001D03*
X80660000Y-73275001D03*
X70500000Y-75815001D03*
X80660000Y-75815001D03*
X70500000Y-73275001D03*
X80660000Y-78355001D03*
X70500000Y-70735001D03*
X80660000Y-80895001D03*
X70500000Y-68195001D03*
X80660000Y-83435001D03*
X70500000Y-65655001D03*
X80660000Y-85975001D03*
X70500000Y-63115001D03*
X80660000Y-88515001D03*
D11*
X70500000Y-60575001D03*
D12*
X75500000Y-60000000D03*
X79000000Y-72000000D03*
X77375010Y-80750000D03*
X77500000Y-73250000D03*
X76650010Y-83250000D03*
X77000000Y-70750000D03*
X75925010Y-86000000D03*
X76000000Y-68250000D03*
X74750000Y-88500000D03*
X75500000Y-65750000D03*
X79000000Y-84750000D03*
X78000000Y-70250000D03*
D13*
X75500000Y-60000000D02*
X76250000Y-59250000D01*
X82010000Y-59250000D02*
X83335001Y-60575001D01*
X76250000Y-59250000D02*
X82010000Y-59250000D01*
X83335001Y-68195001D02*
X82140000Y-67000000D01*
X70500000Y-63115001D02*
X71750000Y-64365001D01*
X71750000Y-66500000D02*
X72250000Y-67000000D01*
X71750000Y-64365001D02*
X71750000Y-66500000D01*
X82140000Y-67000000D02*
X72250000Y-67000000D01*
X83335001Y-70735001D02*
X82100000Y-69500000D01*
X71299999Y-68995000D02*
X70500000Y-68195001D01*
X71804999Y-69500000D02*
X71299999Y-68995000D01*
X82100000Y-69500000D02*
X71804999Y-69500000D01*
X74306371Y-75815001D02*
X73175001Y-75815001D01*
X76846371Y-78355001D02*
X74306371Y-75815001D01*
X80660000Y-78355001D02*
X76846371Y-78355001D01*
X83335001Y-73275001D02*
X82060000Y-72000000D01*
X82060000Y-72000000D02*
X81250000Y-72000000D01*
X81250000Y-72000000D02*
X79250000Y-72000000D01*
X79250000Y-72000000D02*
X79000000Y-72000000D01*
X80660000Y-80895001D02*
X77520011Y-80895001D01*
X77520011Y-80895001D02*
X77375010Y-80750000D01*
X73200002Y-73250000D02*
X73175001Y-73275001D01*
X77500000Y-73250000D02*
X73200002Y-73250000D01*
X80660000Y-83435001D02*
X76835011Y-83435001D01*
X76835011Y-83435001D02*
X76650010Y-83250000D01*
X73190000Y-70750000D02*
X73175001Y-70735001D01*
X77000000Y-70750000D02*
X73190000Y-70750000D01*
X71299999Y-74075000D02*
X70500000Y-73275001D01*
X82210000Y-77230000D02*
X83335001Y-78355001D01*
X76730000Y-77230000D02*
X82210000Y-77230000D01*
X74000000Y-74500000D02*
X76730000Y-77230000D01*
X71724999Y-74500000D02*
X71299999Y-74075000D01*
X73250000Y-74500000D02*
X71724999Y-74500000D01*
X73250000Y-74500000D02*
X74000000Y-74500000D01*
X73000000Y-74500000D02*
X73250000Y-74500000D01*
X80660000Y-85975001D02*
X75950009Y-85975001D01*
X75950009Y-85975001D02*
X75925010Y-86000000D01*
X73230000Y-68250000D02*
X73175001Y-68195001D01*
X76000000Y-68250000D02*
X73230000Y-68250000D01*
X83335001Y-80895001D02*
X81940000Y-79500000D01*
X81940000Y-79500000D02*
X76750000Y-79500000D01*
X76750000Y-79500000D02*
X74250000Y-77000000D01*
X71684999Y-77000000D02*
X70500000Y-75815001D01*
X74250000Y-77000000D02*
X71684999Y-77000000D01*
X80660000Y-88515001D02*
X74765001Y-88515001D01*
X74765001Y-88515001D02*
X74750000Y-88500000D01*
X73270000Y-65750000D02*
X73175001Y-65655001D01*
X75500000Y-65750000D02*
X73270000Y-65750000D01*
X83335001Y-85975001D02*
X82110000Y-84750000D01*
X82110000Y-84750000D02*
X79000000Y-84750000D01*
X80660000Y-70735001D02*
X78485001Y-70735001D01*
X78485001Y-70735001D02*
X78000000Y-70250000D01*
X80660000Y-65655001D02*
X76004999Y-61000000D01*
X74225001Y-60575001D02*
X73175001Y-60575001D01*
X74650000Y-61000000D02*
X74225001Y-60575001D01*
X76004999Y-61000000D02*
X74650000Y-61000000D01*
M02*
