G04 #@! TF.GenerationSoftware,KiCad,Pcbnew,(5.1.4)-1*
G04 #@! TF.CreationDate,2022-03-07T20:56:38-05:00*
G04 #@! TF.ProjectId,MB7074_to_MB7072,4d423730-3734-45f7-946f-5f4d42373037,rev?*
G04 #@! TF.SameCoordinates,Original*
G04 #@! TF.FileFunction,Legend,Bot*
G04 #@! TF.FilePolarity,Positive*
%FSLAX46Y46*%
G04 Gerber Fmt 4.6, Leading zero omitted, Abs format (unit mm)*
G04 Created by KiCad (PCBNEW (5.1.4)-1) date 2022-03-07 20:56:38*
%MOMM*%
%LPD*%
G04 APERTURE LIST*
%ADD10C,0.150000*%
%ADD11C,0.120000*%
G04 APERTURE END LIST*
D10*
X79535714Y-89702380D02*
X79535714Y-88702380D01*
X79202380Y-89416666D01*
X78869047Y-88702380D01*
X78869047Y-89702380D01*
X78059523Y-89178571D02*
X77916666Y-89226190D01*
X77869047Y-89273809D01*
X77821428Y-89369047D01*
X77821428Y-89511904D01*
X77869047Y-89607142D01*
X77916666Y-89654761D01*
X78011904Y-89702380D01*
X78392857Y-89702380D01*
X78392857Y-88702380D01*
X78059523Y-88702380D01*
X77964285Y-88750000D01*
X77916666Y-88797619D01*
X77869047Y-88892857D01*
X77869047Y-88988095D01*
X77916666Y-89083333D01*
X77964285Y-89130952D01*
X78059523Y-89178571D01*
X78392857Y-89178571D01*
X77392857Y-89702380D02*
X77392857Y-88702380D01*
X77059523Y-89416666D01*
X76726190Y-88702380D01*
X76726190Y-89702380D01*
X75726190Y-89702380D02*
X76297619Y-89702380D01*
X76011904Y-89702380D02*
X76011904Y-88702380D01*
X76107142Y-88845238D01*
X76202380Y-88940476D01*
X76297619Y-88988095D01*
X75107142Y-88702380D02*
X75011904Y-88702380D01*
X74916666Y-88750000D01*
X74869047Y-88797619D01*
X74821428Y-88892857D01*
X74773809Y-89083333D01*
X74773809Y-89321428D01*
X74821428Y-89511904D01*
X74869047Y-89607142D01*
X74916666Y-89654761D01*
X75011904Y-89702380D01*
X75107142Y-89702380D01*
X75202380Y-89654761D01*
X75250000Y-89607142D01*
X75297619Y-89511904D01*
X75345238Y-89321428D01*
X75345238Y-89083333D01*
X75297619Y-88892857D01*
X75250000Y-88797619D01*
X75202380Y-88750000D01*
X75107142Y-88702380D01*
X73916666Y-89035714D02*
X73916666Y-89702380D01*
X74154761Y-88654761D02*
X74392857Y-89369047D01*
X73773809Y-89369047D01*
X73440476Y-88797619D02*
X73392857Y-88750000D01*
X73297619Y-88702380D01*
X73059523Y-88702380D01*
X72964285Y-88750000D01*
X72916666Y-88797619D01*
X72869047Y-88892857D01*
X72869047Y-88988095D01*
X72916666Y-89130952D01*
X73488095Y-89702380D01*
X72869047Y-89702380D01*
X72488095Y-88797619D02*
X72440476Y-88750000D01*
X72345238Y-88702380D01*
X72107142Y-88702380D01*
X72011904Y-88750000D01*
X71964285Y-88797619D01*
X71916666Y-88892857D01*
X71916666Y-88988095D01*
X71964285Y-89130952D01*
X72535714Y-89702380D01*
X71916666Y-89702380D01*
D11*
X80660000Y-90000000D02*
X80660000Y-89500000D01*
X70500000Y-90000000D02*
X80660000Y-90000000D01*
X70500000Y-89500000D02*
X70500000Y-90000000D01*
D10*
X74535714Y-59342857D02*
X74535714Y-60242857D01*
X74835714Y-59600000D01*
X75135714Y-60242857D01*
X75135714Y-59342857D01*
X75864285Y-59814285D02*
X75992857Y-59771428D01*
X76035714Y-59728571D01*
X76078571Y-59642857D01*
X76078571Y-59514285D01*
X76035714Y-59428571D01*
X75992857Y-59385714D01*
X75907142Y-59342857D01*
X75564285Y-59342857D01*
X75564285Y-60242857D01*
X75864285Y-60242857D01*
X75950000Y-60200000D01*
X75992857Y-60157142D01*
X76035714Y-60071428D01*
X76035714Y-59985714D01*
X75992857Y-59900000D01*
X75950000Y-59857142D01*
X75864285Y-59814285D01*
X75564285Y-59814285D01*
X76378571Y-60242857D02*
X76978571Y-60242857D01*
X76592857Y-59342857D01*
X77492857Y-60242857D02*
X77578571Y-60242857D01*
X77664285Y-60200000D01*
X77707142Y-60157142D01*
X77750000Y-60071428D01*
X77792857Y-59900000D01*
X77792857Y-59685714D01*
X77750000Y-59514285D01*
X77707142Y-59428571D01*
X77664285Y-59385714D01*
X77578571Y-59342857D01*
X77492857Y-59342857D01*
X77407142Y-59385714D01*
X77364285Y-59428571D01*
X77321428Y-59514285D01*
X77278571Y-59685714D01*
X77278571Y-59900000D01*
X77321428Y-60071428D01*
X77364285Y-60157142D01*
X77407142Y-60200000D01*
X77492857Y-60242857D01*
X78092857Y-60242857D02*
X78692857Y-60242857D01*
X78307142Y-59342857D01*
X78992857Y-60157142D02*
X79035714Y-60200000D01*
X79121428Y-60242857D01*
X79335714Y-60242857D01*
X79421428Y-60200000D01*
X79464285Y-60157142D01*
X79507142Y-60071428D01*
X79507142Y-59985714D01*
X79464285Y-59857142D01*
X78950000Y-59342857D01*
X79507142Y-59342857D01*
D11*
X83335001Y-59000000D02*
X83335001Y-59500000D01*
X73175001Y-59000000D02*
X83335001Y-59000000D01*
X73175001Y-59500000D02*
X73175001Y-59000000D01*
M02*
