G04 #@! TF.GenerationSoftware,KiCad,Pcbnew,(5.1.4)-1*
G04 #@! TF.CreationDate,2022-03-07T20:56:38-05:00*
G04 #@! TF.ProjectId,MB7074_to_MB7072,4d423730-3734-45f7-946f-5f4d42373037,rev?*
G04 #@! TF.SameCoordinates,Original*
G04 #@! TF.FileFunction,Legend,Top*
G04 #@! TF.FilePolarity,Positive*
%FSLAX46Y46*%
G04 Gerber Fmt 4.6, Leading zero omitted, Abs format (unit mm)*
G04 Created by KiCad (PCBNEW (5.1.4)-1) date 2022-03-07 20:56:38*
%MOMM*%
%LPD*%
G04 APERTURE LIST*
%ADD10C,0.200000*%
%ADD11C,0.120000*%
G04 APERTURE END LIST*
D10*
X76502380Y-62235714D02*
X77602380Y-62235714D01*
X76816666Y-62602380D01*
X77602380Y-62969047D01*
X76502380Y-62969047D01*
X77078571Y-63859523D02*
X77026190Y-64016666D01*
X76973809Y-64069047D01*
X76869047Y-64121428D01*
X76711904Y-64121428D01*
X76607142Y-64069047D01*
X76554761Y-64016666D01*
X76502380Y-63911904D01*
X76502380Y-63492857D01*
X77602380Y-63492857D01*
X77602380Y-63859523D01*
X77550000Y-63964285D01*
X77497619Y-64016666D01*
X77392857Y-64069047D01*
X77288095Y-64069047D01*
X77183333Y-64016666D01*
X77130952Y-63964285D01*
X77078571Y-63859523D01*
X77078571Y-63492857D01*
X77602380Y-64488095D02*
X77602380Y-65221428D01*
X76502380Y-64750000D01*
X77602380Y-65850000D02*
X77602380Y-65954761D01*
X77550000Y-66059523D01*
X77497619Y-66111904D01*
X77392857Y-66164285D01*
X77183333Y-66216666D01*
X76921428Y-66216666D01*
X76711904Y-66164285D01*
X76607142Y-66111904D01*
X76554761Y-66059523D01*
X76502380Y-65954761D01*
X76502380Y-65850000D01*
X76554761Y-65745238D01*
X76607142Y-65692857D01*
X76711904Y-65640476D01*
X76921428Y-65588095D01*
X77183333Y-65588095D01*
X77392857Y-65640476D01*
X77497619Y-65692857D01*
X77550000Y-65745238D01*
X77602380Y-65850000D01*
X77602380Y-66583333D02*
X77602380Y-67316666D01*
X76502380Y-66845238D01*
X77235714Y-68207142D02*
X76502380Y-68207142D01*
X77654761Y-67945238D02*
X76869047Y-67683333D01*
X76869047Y-68364285D01*
X76083333Y-69935714D02*
X76135714Y-69883333D01*
X76292857Y-69778571D01*
X76397619Y-69726190D01*
X76554761Y-69673809D01*
X76816666Y-69621428D01*
X77026190Y-69621428D01*
X77288095Y-69673809D01*
X77445238Y-69726190D01*
X77550000Y-69778571D01*
X77707142Y-69883333D01*
X77759523Y-69935714D01*
X76502380Y-70354761D02*
X77602380Y-70354761D01*
X76816666Y-70721428D01*
X77602380Y-71088095D01*
X76502380Y-71088095D01*
X77078571Y-71978571D02*
X77026190Y-72135714D01*
X76973809Y-72188095D01*
X76869047Y-72240476D01*
X76711904Y-72240476D01*
X76607142Y-72188095D01*
X76554761Y-72135714D01*
X76502380Y-72030952D01*
X76502380Y-71611904D01*
X77602380Y-71611904D01*
X77602380Y-71978571D01*
X77550000Y-72083333D01*
X77497619Y-72135714D01*
X77392857Y-72188095D01*
X77288095Y-72188095D01*
X77183333Y-72135714D01*
X77130952Y-72083333D01*
X77078571Y-71978571D01*
X77078571Y-71611904D01*
X76502380Y-72711904D02*
X77602380Y-72711904D01*
X76816666Y-73078571D01*
X77602380Y-73445238D01*
X76502380Y-73445238D01*
X76502380Y-74545238D02*
X76502380Y-73916666D01*
X76502380Y-74230952D02*
X77602380Y-74230952D01*
X77445238Y-74126190D01*
X77340476Y-74021428D01*
X77288095Y-73916666D01*
X77602380Y-75226190D02*
X77602380Y-75330952D01*
X77550000Y-75435714D01*
X77497619Y-75488095D01*
X77392857Y-75540476D01*
X77183333Y-75592857D01*
X76921428Y-75592857D01*
X76711904Y-75540476D01*
X76607142Y-75488095D01*
X76554761Y-75435714D01*
X76502380Y-75330952D01*
X76502380Y-75226190D01*
X76554761Y-75121428D01*
X76607142Y-75069047D01*
X76711904Y-75016666D01*
X76921428Y-74964285D01*
X77183333Y-74964285D01*
X77392857Y-75016666D01*
X77497619Y-75069047D01*
X77550000Y-75121428D01*
X77602380Y-75226190D01*
X77235714Y-76535714D02*
X76502380Y-76535714D01*
X77654761Y-76273809D02*
X76869047Y-76011904D01*
X76869047Y-76692857D01*
X77497619Y-77059523D02*
X77550000Y-77111904D01*
X77602380Y-77216666D01*
X77602380Y-77478571D01*
X77550000Y-77583333D01*
X77497619Y-77635714D01*
X77392857Y-77688095D01*
X77288095Y-77688095D01*
X77130952Y-77635714D01*
X76502380Y-77007142D01*
X76502380Y-77688095D01*
X77497619Y-78107142D02*
X77550000Y-78159523D01*
X77602380Y-78264285D01*
X77602380Y-78526190D01*
X77550000Y-78630952D01*
X77497619Y-78683333D01*
X77392857Y-78735714D01*
X77288095Y-78735714D01*
X77130952Y-78683333D01*
X76502380Y-78054761D01*
X76502380Y-78735714D01*
X76083333Y-79102380D02*
X76135714Y-79154761D01*
X76292857Y-79259523D01*
X76397619Y-79311904D01*
X76554761Y-79364285D01*
X76816666Y-79416666D01*
X77026190Y-79416666D01*
X77288095Y-79364285D01*
X77445238Y-79311904D01*
X77550000Y-79259523D01*
X77707142Y-79154761D01*
X77759523Y-79102380D01*
X77235714Y-80621428D02*
X77235714Y-81040476D01*
X77602380Y-80778571D02*
X76659523Y-80778571D01*
X76554761Y-80830952D01*
X76502380Y-80935714D01*
X76502380Y-81040476D01*
X76502380Y-81564285D02*
X76554761Y-81459523D01*
X76607142Y-81407142D01*
X76711904Y-81354761D01*
X77026190Y-81354761D01*
X77130952Y-81407142D01*
X77183333Y-81459523D01*
X77235714Y-81564285D01*
X77235714Y-81721428D01*
X77183333Y-81826190D01*
X77130952Y-81878571D01*
X77026190Y-81930952D01*
X76711904Y-81930952D01*
X76607142Y-81878571D01*
X76554761Y-81826190D01*
X76502380Y-81721428D01*
X76502380Y-81564285D01*
X76502380Y-83240476D02*
X77602380Y-83240476D01*
X76816666Y-83607142D01*
X77602380Y-83973809D01*
X76502380Y-83973809D01*
X77078571Y-84864285D02*
X77026190Y-85021428D01*
X76973809Y-85073809D01*
X76869047Y-85126190D01*
X76711904Y-85126190D01*
X76607142Y-85073809D01*
X76554761Y-85021428D01*
X76502380Y-84916666D01*
X76502380Y-84497619D01*
X77602380Y-84497619D01*
X77602380Y-84864285D01*
X77550000Y-84969047D01*
X77497619Y-85021428D01*
X77392857Y-85073809D01*
X77288095Y-85073809D01*
X77183333Y-85021428D01*
X77130952Y-84969047D01*
X77078571Y-84864285D01*
X77078571Y-84497619D01*
X77602380Y-85492857D02*
X77602380Y-86226190D01*
X76502380Y-85754761D01*
X77602380Y-86854761D02*
X77602380Y-86959523D01*
X77550000Y-87064285D01*
X77497619Y-87116666D01*
X77392857Y-87169047D01*
X77183333Y-87221428D01*
X76921428Y-87221428D01*
X76711904Y-87169047D01*
X76607142Y-87116666D01*
X76554761Y-87064285D01*
X76502380Y-86959523D01*
X76502380Y-86854761D01*
X76554761Y-86750000D01*
X76607142Y-86697619D01*
X76711904Y-86645238D01*
X76921428Y-86592857D01*
X77183333Y-86592857D01*
X77392857Y-86645238D01*
X77497619Y-86697619D01*
X77550000Y-86750000D01*
X77602380Y-86854761D01*
X77602380Y-87588095D02*
X77602380Y-88321428D01*
X76502380Y-87850000D01*
X77497619Y-88688095D02*
X77550000Y-88740476D01*
X77602380Y-88845238D01*
X77602380Y-89107142D01*
X77550000Y-89211904D01*
X77497619Y-89264285D01*
X77392857Y-89316666D01*
X77288095Y-89316666D01*
X77130952Y-89264285D01*
X76502380Y-88635714D01*
X76502380Y-89316666D01*
D11*
X76000000Y-61750000D02*
X76250000Y-61750000D01*
X77000000Y-60250000D02*
X76000000Y-61750000D01*
X78000000Y-61750000D02*
X77000000Y-60250000D01*
X76250000Y-61750000D02*
X78000000Y-61750000D01*
M02*
